<?xml version="1.0" standalone="no"?>
<!DOCTYPE svg PUBLIC "-//W3C//DTD SVG 20010904//EN"
 "http://www.w3.org/TR/2001/REC-SVG-20010904/DTD/svg10.dtd">
<svg version="1.0" xmlns="http://www.w3.org/2000/svg"
 width="300.000000pt" height="44.000000pt" viewBox="0 0 300.000000 44.000000"
 preserveAspectRatio="xMidYMid meet">
<metadata>
Created by potrace 1.10, written by Peter Selinger 2001-2011
</metadata>
<g transform="translate(0.000000,44.000000) scale(0.100000,-0.100000)"
fill="#ffffff" stroke="none">
<path d="M37 424 c-3 -4 5 -28 18 -53 l24 -48 -25 -43 -25 -44 22 -47 22 -47
-26 -46 c-39 -70 -21 -74 104 -23 105 42 105 42 92 67 -17 34 -16 133 1 175 8
19 12 36 8 39 -22 12 -184 76 -195 76 -8 0 -16 -3 -20 -6z m164 -85 c15 -8 17
-14 8 -37 -6 -15 -9 -60 -7 -100 l3 -74 -59 -24 c-33 -13 -63 -24 -68 -24 -4
0 -1 15 8 33 15 32 15 36 -5 75 l-21 42 21 41 c19 39 20 59 3 103 -6 14 1 14
46 -4 29 -12 61 -25 71 -31z"/>
<path d="M945 385 c-44 -18 -89 -36 -99 -39 -16 -4 -17 -8 -7 -20 22 -26 26
-135 7 -180 -9 -22 -15 -40 -14 -41 2 -1 49 -21 106 -45 121 -51 136 -46 97
30 l-24 47 26 42 25 43 -22 48 -23 49 22 36 c43 74 26 80 -94 30z m60 -35
c-14 -28 -14 -35 2 -79 16 -47 16 -51 -1 -89 -17 -38 -17 -61 0 -106 5 -12
-11 -8 -65 16 -51 22 -70 36 -66 45 3 8 5 54 5 101 l0 87 68 27 c37 15 68 27
70 27 1 1 -5 -13 -13 -29z"/>
<path d="M324 347 c-88 -80 -52 -249 57 -271 17 -3 97 -6 178 -6 124 0 152 3
181 19 50 26 72 69 72 141 0 69 -16 100 -65 130 -29 18 -51 20 -210 20 l-177
0 -36 -33z m308 8 c50 -18 161 -102 166 -127 4 -22 -101 -104 -168 -129 -99
-38 -203 -9 -308 86 l-44 40 33 34 c101 100 211 133 321 96z"/>
<path d="M480 347 c-51 -17 -120 -60 -153 -95 l-28 -29 45 -36 c57 -47 138
-88 186 -94 47 -7 130 29 207 89 62 48 62 48 -38 118 l-60 42 26 -38 c45 -67
25 -165 -35 -169 -19 -2 -20 0 -8 9 8 6 20 20 26 31 8 14 12 16 12 5 0 -13 1
-13 10 0 26 40 -2 121 -54 155 -33 22 -92 27 -136 12z m120 -54 c45 -41 49
-83 13 -123 -22 -24 -38 -33 -61 -33 -39 0 -72 28 -72 61 0 55 64 83 94 40 19
-27 5 -58 -27 -57 l-22 0 23 10 c34 13 25 44 -13 44 -25 0 -31 -4 -33 -27 -4
-37 38 -66 74 -50 28 13 47 55 39 83 -10 31 -55 59 -95 59 -39 0 -90 -38 -90
-66 0 -19 10 -17 26 4 12 15 13 14 4 -11 -14 -41 -14 -43 27 -84 23 -22 30
-34 18 -29 -11 5 -30 11 -43 13 -41 9 -65 52 -59 106 2 27 12 56 21 65 16 16
16 15 2 -13 -9 -16 -16 -37 -16 -45 1 -8 7 -1 14 16 30 69 120 87 176 37z
m-218 -58 c-4 -37 -11 -42 -30 -23 -9 9 -7 17 10 35 12 13 22 23 23 23 0 0 -1
-16 -3 -35z m358 -11 c0 -8 -4 -14 -10 -14 -5 0 -10 9 -10 21 0 11 5 17 10 14
6 -3 10 -13 10 -21z"/>
<path d="M1330 227 l0 -94 35 -1 c19 -1 37 3 40 8 3 6 -5 10 -19 10 -32 0 -45
20 -17 27 24 6 28 23 6 23 -11 0 -15 12 -15 50 0 43 3 50 20 50 11 0 20 5 20
10 0 6 -16 10 -35 10 l-35 0 0 -93z"/>
<path d="M1695 296 c-23 -35 -23 -121 0 -146 23 -25 41 -25 55 -1 13 25 13 51
0 51 -5 0 -10 -12 -10 -26 0 -16 -5 -24 -12 -22 -14 5 -24 109 -13 137 5 13 9
12 25 -9 18 -23 20 -24 20 -4 0 45 -41 58 -65 20z"/>
<path d="M2275 300 c-25 -28 -31 -99 -11 -138 19 -38 39 -41 60 -10 18 26 21
48 6 48 -5 0 -10 -6 -10 -12 0 -7 -5 -20 -10 -28 -23 -34 -38 37 -24 109 7 35
23 41 31 11 6 -21 23 -28 23 -9 0 19 -20 49 -34 49 -7 0 -21 -9 -31 -20z"/>
<path d="M1424 268 c4 -18 9 -57 13 -85 3 -36 10 -53 19 -53 9 0 14 12 14 34
0 18 7 50 16 71 8 20 14 44 12 53 -2 10 -11 -2 -20 -28 l-15 -45 -12 43 c-14
50 -36 58 -27 10z"/>
<path d="M1882 217 c3 -94 20 -109 29 -27 3 30 6 45 7 32 3 -36 31 -94 42 -87
13 8 13 155 0 155 -5 0 -11 -28 -11 -62 l-1 -63 -16 62 c-11 44 -21 63 -34 66
-17 5 -19 -1 -16 -76z"/>
<path d="M2007 293 c-4 -3 -7 -42 -7 -85 0 -63 3 -78 15 -78 21 0 55 59 55 95
0 49 -40 92 -63 68z m43 -73 c0 -19 -5 -42 -10 -50 -7 -11 -10 4 -10 50 0 46
3 61 10 50 5 -8 10 -31 10 -50z"/>
<path d="M2086 292 c-3 -5 1 -29 9 -52 8 -23 15 -58 15 -77 0 -50 24 -37 31
18 3 24 12 59 19 77 7 18 10 36 6 39 -3 3 -10 -7 -16 -23 -22 -59 -23 -60 -30
-26 -9 39 -25 59 -34 44z"/>
<path d="M2366 293 c-3 -3 -6 -39 -6 -80 0 -58 3 -73 15 -73 12 0 15 15 15 74
0 69 -8 95 -24 79z"/>
<path d="M2428 219 c-2 -43 0 -79 5 -79 4 0 10 0 15 0 4 0 5 23 4 50 -2 28 -1
50 1 50 3 0 13 -25 22 -55 8 -30 20 -55 25 -55 6 0 10 37 10 86 0 53 -4 83
-10 79 -5 -3 -7 -32 -5 -68 6 -67 -5 -59 -25 19 -6 23 -17 44 -24 47 -12 5
-15 -10 -18 -74z"/>
<path d="M2647 293 c-4 -3 -7 -39 -7 -80 0 -60 3 -73 16 -73 13 0 15 8 11 40
-2 22 0 40 4 40 5 0 9 -9 9 -20 0 -35 28 -22 38 18 10 36 10 35 11 -25 1 -35
6 -63 11 -63 11 0 13 41 3 118 -7 61 -23 64 -39 7 -11 -42 -18 -39 -29 13 -6
31 -15 39 -28 25z"/>
<path d="M2886 284 c-22 -21 -20 -33 14 -78 20 -26 27 -43 20 -50 -11 -11 -21
-5 -23 16 -3 16 -20 23 -25 10 -6 -18 34 -56 52 -49 30 12 30 38 2 89 -28 49
-29 78 -1 42 11 -15 14 -16 15 -3 0 15 -18 39 -31 39 -4 0 -15 -7 -23 -16z"/>
<path d="M1530 210 l0 -80 29 0 c17 0 33 5 36 10 4 6 -5 10 -19 10 -30 0 -34
14 -8 29 15 9 15 10 1 11 -13 0 -17 11 -17 44 -1 39 2 45 21 49 15 3 12 5 -10
6 l-33 1 0 -80z"/>
<path d="M1791 233 c-7 -32 -15 -69 -18 -83 -6 -25 -5 -25 13 -6 14 14 18 30
16 54 -3 25 -1 33 7 27 7 -4 11 -17 11 -28 -3 -33 11 -67 26 -67 10 0 13 8 10
23 -3 12 -10 48 -16 80 -7 33 -17 57 -24 57 -7 0 -18 -24 -25 -57z"/>
<path d="M2550 210 l0 -80 29 0 c17 0 33 5 36 10 4 6 -5 10 -19 10 -30 0 -34
14 -8 29 13 8 14 10 2 11 -11 0 -15 12 -15 45 0 36 4 45 20 48 12 3 6 5 -12 6
l-33 1 0 -80z"/>
<path d="M2805 278 c-15 -45 -33 -133 -28 -138 3 -3 8 1 10 8 7 18 34 15 49
-5 7 -10 15 -15 18 -12 5 5 -8 100 -20 142 -6 20 -23 23 -29 5z m6 -101 c-13
-13 -15 11 -4 40 7 16 8 15 11 -6 2 -13 -1 -28 -7 -34z"/>
</g>
</svg>
